<?xml version="1.0" encoding="UTF-8" standalone="no"?>
<!DOCTYPE svg PUBLIC "-//W3C//DTD SVG 1.1//EN"
 "http://www.w3.org/Graphics/SVG/1.1/DTD/svg11.dtd">
<!-- Generated by graphviz version 2.46.0 (20210118.1747)
 -->
<!-- Title: main Pages: 1 -->
<svg width="442pt" height="241pt"
 viewBox="0.00 0.00 442.33 241.22" xmlns="http://www.w3.org/2000/svg" xmlns:xlink="http://www.w3.org/1999/xlink">
<g id="graph0" class="graph" transform="scale(1 1) rotate(0) translate(4 237.22)">
<title>main</title>
<polygon fill="white" stroke="transparent" points="-4,4 -4,-237.22 438.33,-237.22 438.33,4 -4,4"/>
<!-- Бабушка -->
<g id="node1" class="node">
<title>Бабушка</title>
<ellipse fill="#ff7e40" stroke="black" cx="62.93" cy="-206.35" rx="62.87" ry="26.74"/>
<text text-anchor="middle" x="62.93" y="-210.15" font-family="Times New Roman,serif" font-size="14.00">Литвиненко</text>
<text text-anchor="middle" x="62.93" y="-195.15" font-family="Times New Roman,serif" font-size="14.00">Людмила</text>
</g>
<!-- FM -->
<g id="node2" class="node">
<title>FM</title>
</g>
<!-- Бабушка&#45;&gt;FM -->
<g id="edge1" class="edge">
<title>Бабушка&#45;&gt;FM</title>
<path fill="none" stroke="black" d="M125.9,-206.35C131.72,-206.35 137.55,-206.35 143.37,-206.35"/>
</g>
<!-- Дедушка -->
<g id="node3" class="node">
<title>Дедушка</title>
<ellipse fill="#fa9940" stroke="black" cx="224.93" cy="-206.35" rx="62.87" ry="26.74"/>
<text text-anchor="middle" x="224.93" y="-210.15" font-family="Times New Roman,serif" font-size="14.00">Литвиненко</text>
<text text-anchor="middle" x="224.93" y="-195.15" font-family="Times New Roman,serif" font-size="14.00">Василий</text>
</g>
<!-- FM&#45;&gt;Дедушка -->
<g id="edge2" class="edge">
<title>FM&#45;&gt;Дедушка</title>
<path fill="none" stroke="black" d="M144.57,-206.35C150.32,-206.35 156.08,-206.35 161.83,-206.35"/>
</g>
<!-- Дядя -->
<g id="node4" class="node">
<title>Дядя</title>
<ellipse fill="#fa9940" stroke="black" cx="71.93" cy="-116.61" rx="62.87" ry="26.74"/>
<text text-anchor="middle" x="71.93" y="-120.41" font-family="Times New Roman,serif" font-size="14.00">Литвиненко</text>
<text text-anchor="middle" x="71.93" y="-105.41" font-family="Times New Roman,serif" font-size="14.00">Денис</text>
</g>
<!-- FM&#45;&gt;Дядя -->
<g id="edge3" class="edge">
<title>FM&#45;&gt;Дядя</title>
<path fill="none" stroke="black" d="M143.93,-205.31C143.77,-204.38 141.24,-189.44 134.93,-179.48 125.75,-164.98 112.54,-151.32 100.59,-140.55"/>
</g>
<!-- Мама -->
<g id="node5" class="node">
<title>Мама</title>
<ellipse fill="#ff7e40" stroke="black" cx="215.93" cy="-116.61" rx="62.87" ry="26.74"/>
<text text-anchor="middle" x="215.93" y="-120.41" font-family="Times New Roman,serif" font-size="14.00">Литвиненко</text>
<text text-anchor="middle" x="215.93" y="-105.41" font-family="Times New Roman,serif" font-size="14.00">Ирина</text>
</g>
<!-- FM&#45;&gt;Мама -->
<g id="edge6" class="edge">
<title>FM&#45;&gt;Мама</title>
<path fill="none" stroke="black" d="M143.94,-205.31C144.09,-204.38 146.62,-189.44 152.93,-179.48 162.12,-164.98 175.33,-151.32 187.28,-140.55"/>
</g>
<!-- FM2 -->
<g id="node6" class="node">
<title>FM2</title>
</g>
<!-- Мама&#45;&gt;FM2 -->
<g id="edge4" class="edge">
<title>Мама&#45;&gt;FM2</title>
<path fill="none" stroke="black" d="M278.9,-116.61C284.72,-116.61 290.55,-116.61 296.37,-116.61"/>
</g>
<!-- Папа -->
<g id="node7" class="node">
<title>Папа</title>
<ellipse fill="#fa9940" stroke="black" cx="374.93" cy="-116.61" rx="59.29" ry="26.74"/>
<text text-anchor="middle" x="374.93" y="-120.41" font-family="Times New Roman,serif" font-size="14.00">Симаненко</text>
<text text-anchor="middle" x="374.93" y="-105.41" font-family="Times New Roman,serif" font-size="14.00">Александр</text>
</g>
<!-- FM2&#45;&gt;Папа -->
<g id="edge5" class="edge">
<title>FM2&#45;&gt;Папа</title>
<path fill="none" stroke="black" d="M297.54,-116.61C303.49,-116.61 309.43,-116.61 315.38,-116.61"/>
</g>
<!-- Я -->
<g id="node8" class="node">
<title>Я</title>
<ellipse fill="#ff7e40" stroke="black" cx="296.93" cy="-26.87" rx="59.29" ry="26.74"/>
<text text-anchor="middle" x="296.93" y="-30.67" font-family="Times New Roman,serif" font-size="14.00">Симаненко</text>
<text text-anchor="middle" x="296.93" y="-15.67" font-family="Times New Roman,serif" font-size="14.00">Юлия</text>
</g>
<!-- FM2&#45;&gt;Я -->
<g id="edge7" class="edge">
<title>FM2&#45;&gt;Я</title>
<path fill="none" stroke="black" d="M296.93,-115.55C296.93,-113.87 296.93,-79.2 296.93,-53.97"/>
</g>
</g>
</svg>
