<?xml version="1.0" encoding="UTF-8" standalone="no"?>
<!DOCTYPE svg PUBLIC "-//W3C//DTD SVG 1.1//EN"
 "http://www.w3.org/Graphics/SVG/1.1/DTD/svg11.dtd">
<!-- Generated by graphviz version 2.46.0 (20210118.1747)
 -->
<!-- Title: main Pages: 1 -->
<svg width="367pt" height="241pt"
 viewBox="0.00 0.00 367.33 241.22" xmlns="http://www.w3.org/2000/svg" xmlns:xlink="http://www.w3.org/1999/xlink">
<g id="graph0" class="graph" transform="scale(1 1) rotate(0) translate(4 237.22)">
<title>main</title>
<polygon fill="white" stroke="transparent" points="-4,4 -4,-237.22 363.33,-237.22 363.33,4 -4,4"/>
<!-- Бабушка -->
<g id="node1" class="node">
<title>Бабушка</title>
<ellipse fill="#ff7e40" stroke="black" cx="152.93" cy="-206.35" rx="50.41" ry="26.74"/>
<text text-anchor="middle" x="152.93" y="-210.15" font-family="Times New Roman,serif" font-size="14.00">Шапкина</text>
<text text-anchor="middle" x="152.93" y="-195.15" font-family="Times New Roman,serif" font-size="14.00">Любовь</text>
</g>
<!-- FM -->
<g id="node2" class="node">
<title>FM</title>
</g>
<!-- Бабушка&#45;&gt;FM -->
<g id="edge1" class="edge">
<title>Бабушка&#45;&gt;FM</title>
<path fill="none" stroke="black" d="M203.33,-206.35C209.34,-206.35 215.35,-206.35 221.35,-206.35"/>
</g>
<!-- Дедушка -->
<g id="node3" class="node">
<title>Дедушка</title>
<ellipse fill="#fa9940" stroke="black" cx="299.93" cy="-206.35" rx="59.29" ry="26.74"/>
<text text-anchor="middle" x="299.93" y="-210.15" font-family="Times New Roman,serif" font-size="14.00">Симаненко</text>
<text text-anchor="middle" x="299.93" y="-195.15" font-family="Times New Roman,serif" font-size="14.00">Виталий</text>
</g>
<!-- FM&#45;&gt;Дедушка -->
<g id="edge2" class="edge">
<title>FM&#45;&gt;Дедушка</title>
<path fill="none" stroke="black" d="M222.54,-206.35C228.49,-206.35 234.43,-206.35 240.38,-206.35"/>
</g>
<!-- Папа -->
<g id="node6" class="node">
<title>Папа</title>
<ellipse fill="#fa9940" stroke="black" cx="221.93" cy="-116.61" rx="59.29" ry="26.74"/>
<text text-anchor="middle" x="221.93" y="-120.41" font-family="Times New Roman,serif" font-size="14.00">Симаненко</text>
<text text-anchor="middle" x="221.93" y="-105.41" font-family="Times New Roman,serif" font-size="14.00">Александр</text>
</g>
<!-- FM&#45;&gt;Папа -->
<g id="edge5" class="edge">
<title>FM&#45;&gt;Папа</title>
<path fill="none" stroke="black" d="M221.93,-205.29C221.93,-203.61 221.93,-168.94 221.93,-143.71"/>
</g>
<!-- Мама -->
<g id="node4" class="node">
<title>Мама</title>
<ellipse fill="#ff7e40" stroke="black" cx="62.93" cy="-116.61" rx="62.87" ry="26.74"/>
<text text-anchor="middle" x="62.93" y="-120.41" font-family="Times New Roman,serif" font-size="14.00">Литвиненко</text>
<text text-anchor="middle" x="62.93" y="-105.41" font-family="Times New Roman,serif" font-size="14.00">Ирина</text>
</g>
<!-- FM2 -->
<g id="node5" class="node">
<title>FM2</title>
</g>
<!-- Мама&#45;&gt;FM2 -->
<g id="edge3" class="edge">
<title>Мама&#45;&gt;FM2</title>
<path fill="none" stroke="black" d="M125.9,-116.61C131.72,-116.61 137.55,-116.61 143.37,-116.61"/>
</g>
<!-- FM2&#45;&gt;Папа -->
<g id="edge4" class="edge">
<title>FM2&#45;&gt;Папа</title>
<path fill="none" stroke="black" d="M144.54,-116.61C150.49,-116.61 156.43,-116.61 162.38,-116.61"/>
</g>
<!-- Я -->
<g id="node7" class="node">
<title>Я</title>
<ellipse fill="#ff7e40" stroke="black" cx="143.93" cy="-26.87" rx="59.29" ry="26.74"/>
<text text-anchor="middle" x="143.93" y="-30.67" font-family="Times New Roman,serif" font-size="14.00">Симаненко</text>
<text text-anchor="middle" x="143.93" y="-15.67" font-family="Times New Roman,serif" font-size="14.00">Юлия</text>
</g>
<!-- FM2&#45;&gt;Я -->
<g id="edge6" class="edge">
<title>FM2&#45;&gt;Я</title>
<path fill="none" stroke="black" d="M143.93,-115.55C143.93,-113.87 143.93,-79.2 143.93,-53.97"/>
</g>
</g>
</svg>
