<?xml version="1.0" encoding="UTF-8" standalone="no"?>
<!DOCTYPE svg PUBLIC "-//W3C//DTD SVG 1.1//EN"
 "http://www.w3.org/Graphics/SVG/1.1/DTD/svg11.dtd">
<!-- Generated by graphviz version 2.46.0 (20210118.1747)
 -->
<!-- Title: main Pages: 1 -->
<svg width="572pt" height="241pt"
 viewBox="0.00 0.00 572.14 241.22" xmlns="http://www.w3.org/2000/svg" xmlns:xlink="http://www.w3.org/1999/xlink">
<g id="graph0" class="graph" transform="scale(1 1) rotate(0) translate(4 237.22)">
<title>main</title>
<polygon fill="white" stroke="transparent" points="-4,4 -4,-237.22 568.14,-237.22 568.14,4 -4,4"/>
<!-- Бабушка1 -->
<g id="node1" class="node">
<title>Бабушка1</title>
<ellipse fill="#ff7e40" stroke="black" cx="50.2" cy="-206.35" rx="50.41" ry="26.74"/>
<text text-anchor="middle" x="50.2" y="-210.15" font-family="Times New Roman,serif" font-size="14.00">Шапкина</text>
<text text-anchor="middle" x="50.2" y="-195.15" font-family="Times New Roman,serif" font-size="14.00">Любовь</text>
</g>
<!-- FM1 -->
<g id="node2" class="node">
<title>FM1</title>
</g>
<!-- Бабушка1&#45;&gt;FM1 -->
<g id="edge1" class="edge">
<title>Бабушка1&#45;&gt;FM1</title>
<path fill="none" stroke="black" d="M100.61,-206.35C106.61,-206.35 112.62,-206.35 118.62,-206.35"/>
</g>
<!-- Дедушка1 -->
<g id="node3" class="node">
<title>Дедушка1</title>
<ellipse fill="#fa9940" stroke="black" cx="197.2" cy="-206.35" rx="59.29" ry="26.74"/>
<text text-anchor="middle" x="197.2" y="-210.15" font-family="Times New Roman,serif" font-size="14.00">Симаненко</text>
<text text-anchor="middle" x="197.2" y="-195.15" font-family="Times New Roman,serif" font-size="14.00">Виталий</text>
</g>
<!-- FM1&#45;&gt;Дедушка1 -->
<g id="edge2" class="edge">
<title>FM1&#45;&gt;Дедушка1</title>
<path fill="none" stroke="black" d="M119.81,-206.35C125.76,-206.35 131.7,-206.35 137.65,-206.35"/>
</g>
<!-- Папа -->
<g id="node8" class="node">
<title>Папа</title>
<ellipse fill="#fa9940" stroke="black" cx="119.2" cy="-116.61" rx="59.29" ry="26.74"/>
<text text-anchor="middle" x="119.2" y="-120.41" font-family="Times New Roman,serif" font-size="14.00">Симаненко</text>
<text text-anchor="middle" x="119.2" y="-105.41" font-family="Times New Roman,serif" font-size="14.00">Александр</text>
</g>
<!-- FM1&#45;&gt;Папа -->
<g id="edge9" class="edge">
<title>FM1&#45;&gt;Папа</title>
<path fill="none" stroke="black" d="M119.2,-205.29C119.2,-203.61 119.2,-168.94 119.2,-143.71"/>
</g>
<!-- Бабушка -->
<g id="node4" class="node">
<title>Бабушка</title>
<ellipse fill="#ff7e40" stroke="black" cx="339.2" cy="-206.35" rx="62.87" ry="26.74"/>
<text text-anchor="middle" x="339.2" y="-210.15" font-family="Times New Roman,serif" font-size="14.00">Литвиненко</text>
<text text-anchor="middle" x="339.2" y="-195.15" font-family="Times New Roman,serif" font-size="14.00">Людмила</text>
</g>
<!-- FM -->
<g id="node5" class="node">
<title>FM</title>
</g>
<!-- Бабушка&#45;&gt;FM -->
<g id="edge3" class="edge">
<title>Бабушка&#45;&gt;FM</title>
<path fill="none" stroke="black" d="M402.17,-206.35C407.99,-206.35 413.82,-206.35 419.64,-206.35"/>
</g>
<!-- Дедушка -->
<g id="node6" class="node">
<title>Дедушка</title>
<ellipse fill="#fa9940" stroke="black" cx="501.2" cy="-206.35" rx="62.87" ry="26.74"/>
<text text-anchor="middle" x="501.2" y="-210.15" font-family="Times New Roman,serif" font-size="14.00">Литвиненко</text>
<text text-anchor="middle" x="501.2" y="-195.15" font-family="Times New Roman,serif" font-size="14.00">Василий</text>
</g>
<!-- FM&#45;&gt;Дедушка -->
<g id="edge4" class="edge">
<title>FM&#45;&gt;Дедушка</title>
<path fill="none" stroke="black" d="M420.84,-206.35C426.59,-206.35 432.35,-206.35 438.1,-206.35"/>
</g>
<!-- Дядя -->
<g id="node7" class="node">
<title>Дядя</title>
<ellipse fill="#fa9940" stroke="black" cx="422.2" cy="-116.61" rx="62.87" ry="26.74"/>
<text text-anchor="middle" x="422.2" y="-120.41" font-family="Times New Roman,serif" font-size="14.00">Литвиненко</text>
<text text-anchor="middle" x="422.2" y="-105.41" font-family="Times New Roman,serif" font-size="14.00">Денис</text>
</g>
<!-- FM&#45;&gt;Дядя -->
<g id="edge5" class="edge">
<title>FM&#45;&gt;Дядя</title>
<path fill="none" stroke="black" d="M420.21,-205.29C420.24,-203.61 421.03,-168.94 421.61,-143.71"/>
</g>
<!-- Мама -->
<g id="node10" class="node">
<title>Мама</title>
<ellipse fill="#ff7e40" stroke="black" cx="278.2" cy="-116.61" rx="62.87" ry="26.74"/>
<text text-anchor="middle" x="278.2" y="-120.41" font-family="Times New Roman,serif" font-size="14.00">Литвиненко</text>
<text text-anchor="middle" x="278.2" y="-105.41" font-family="Times New Roman,serif" font-size="14.00">Ирина</text>
</g>
<!-- FM&#45;&gt;Мама -->
<g id="edge8" class="edge">
<title>FM&#45;&gt;Мама</title>
<path fill="none" stroke="black" d="M420.2,-205.3C420.15,-204.31 419.11,-188.23 411.2,-179.48 398.86,-165.83 358.08,-147.88 324.89,-134.83"/>
</g>
<!-- FM2 -->
<g id="node9" class="node">
<title>FM2</title>
</g>
<!-- Папа&#45;&gt;FM2 -->
<g id="edge6" class="edge">
<title>Папа&#45;&gt;FM2</title>
<path fill="none" stroke="black" d="M178.62,-116.61C184.62,-116.61 190.62,-116.61 196.62,-116.61"/>
</g>
<!-- FM2&#45;&gt;Мама -->
<g id="edge7" class="edge">
<title>FM2&#45;&gt;Мама</title>
<path fill="none" stroke="black" d="M197.84,-116.61C203.59,-116.61 209.35,-116.61 215.1,-116.61"/>
</g>
<!-- Я -->
<g id="node11" class="node">
<title>Я</title>
<ellipse fill="#ff7e40" stroke="black" cx="197.2" cy="-26.87" rx="59.29" ry="26.74"/>
<text text-anchor="middle" x="197.2" y="-30.67" font-family="Times New Roman,serif" font-size="14.00">Симаненко</text>
<text text-anchor="middle" x="197.2" y="-15.67" font-family="Times New Roman,serif" font-size="14.00">Юлия</text>
</g>
<!-- FM2&#45;&gt;Я -->
<g id="edge10" class="edge">
<title>FM2&#45;&gt;Я</title>
<path fill="none" stroke="black" d="M197.2,-115.55C197.2,-113.87 197.2,-79.2 197.2,-53.97"/>
</g>
</g>
</svg>
